<svg xmlns="http://www.w3.org/2000/svg" version="1.1" xmlns:xlink="http://www.w3.org/1999/xlink" xmlns:svgjs="http://svgjs.dev/svgjs" width="1500" height="1500" viewBox="0 0 1500 1500"><rect width="1500" height="1500" fill="#ffffff"></rect><g transform="matrix(0.6666666666666666,0,0,0.6666666666666666,249.39393939393938,565.6757165561991)"><svg viewBox="0 0 396 146" data-background-color="#ffffff" preserveAspectRatio="xMidYMid meet" height="553" width="1500" xmlns="http://www.w3.org/2000/svg" xmlns:xlink="http://www.w3.org/1999/xlink"><g id="tight-bounds" transform="matrix(1,0,0,1,0.2400000000000091,-0.0035839526358074636)"><svg viewBox="0 0 395.52 146.00716790527161" height="146.00716790527161" width="395.52"><g><svg viewBox="0 0 617.3161276892712 227.8837467287609" height="146.00716790527161" width="395.52"><g transform="matrix(1,0,0,1,219.81852768927126,0)"><svg viewBox="0 0 397.4975999999999 227.8837467287609" height="227.8837467287609" width="397.4975999999999"><g id="textblocktransform"><svg viewBox="0 0 397.4975999999999 227.8837467287609" height="227.8837467287609" width="397.4975999999999" id="textblock"><g><rect width="397.4975999999999" height="13.590945014101631" x="0" y="166.71763287116417" fill="#f20056" opacity="1" stroke-width="0" stroke="transparent" fill-opacity="1" class="rect-yte-0" data-fill-palette-color="primary" rx="1%" id="yte-0" data-palette-color="#f20056"></rect></g><g transform="matrix(1,0,0,1,0.9887999999999693,0)"><svg viewBox="0 0 395.52 150.7073573309921" height="150.7073573309921" width="395.52"><g transform="matrix(1,0,0,1,0,0)"><svg width="395.52" viewBox="5.05 -31.95 85.42 32.55" height="150.7073573309921" data-palette-color="#f20056"><g class="wordmark-text-0" data-fill-palette-color="primary" id="text-0"><path d="M5.05 0L5.05-31.4 14.25-31.4Q19-31.4 22.5-29.46 26-27.53 27.93-24 29.85-20.48 29.85-15.7L29.85-15.7Q29.85-10.98 27.93-7.45 26-3.93 22.5-1.96 19 0 14.25 0L14.25 0 5.05 0ZM14.25-27.95L8.95-27.95 8.95-3.4 14.25-3.4Q17.8-3.4 20.36-5 22.93-6.6 24.31-9.39 25.7-12.18 25.7-15.7L25.7-15.7Q25.7-19.25 24.31-22.01 22.93-24.78 20.36-26.36 17.8-27.95 14.25-27.95L14.25-27.95ZM48.1 0.6L48.1 0.6Q44.95 0.6 42.32-0.54 39.7-1.68 38.1-3.9 36.5-6.13 36.45-9.4L36.45-9.4 40.25-9.4Q40.25-7.2 41.32-5.79 42.4-4.38 44.17-3.69 45.95-3 48.05-3L48.05-3Q50.32-3 52-3.73 53.67-4.45 54.59-5.64 55.5-6.83 55.5-8.25L55.5-8.25Q55.5-10.25 54.27-11.49 53.05-12.73 50.65-13.5L50.65-13.5 45.1-15.45Q41.2-16.85 39.2-18.65 37.2-20.45 37.2-23.7L37.2-23.7Q37.2-27.35 40.01-29.65 42.82-31.95 48-31.95L48-31.95Q52.8-31.95 55.5-29.74 58.2-27.53 58.6-23.8L58.6-23.8 54.75-23.8Q54.37-25.98 52.71-27.19 51.05-28.4 48-28.4L48-28.4Q44.9-28.4 43.17-27.03 41.45-25.65 41.45-23.55L41.45-23.55Q41.45-21.83 42.54-20.81 43.62-19.8 45.95-19L45.95-19 52.45-16.75Q55.82-15.63 57.79-13.6 59.75-11.58 59.75-8.35L59.75-8.35Q59.75-5.85 58.41-3.83 57.07-1.8 54.47-0.6 51.87 0.6 48.1 0.6ZM77.52-4.15L77.02-4.15 86.32-31.4 90.47-31.4 79.27 0 75.22 0 64.12-31.4 68.27-31.4 77.52-4.15Z" fill="#f20056" data-fill-palette-color="primary"></path></g></svg></g></svg></g><g transform="matrix(1,0,0,1,0,196.31885342543788)"><svg viewBox="0 0 232.209792 31.564893303322993" height="31.564893303322993" width="232.209792"><g transform="matrix(1,0,0,1,0,0)"><svg width="232.209792" viewBox="-0.22 -36.11 275.5 37.45" height="31.564893303322993" data-palette-color="#383838"><path d="M47.14-33.74L47.14-33.74Q47.14-33.37 46.97-32.84L46.97-32.84Q46.39-31.25 45.92-30.08L45.92-30.08 32.98 1.34 23.78-19.21 14.23 1.34-0.22-34.55 13.16-34.55 20.02-16.26 29.32-36.11 37.99-16.31 44.09-30.64Q44.41-31.45 44.63-32.23L44.63-32.23 45.04-33.72Q45.31-34.81 46.23-34.81 47.14-34.81 47.14-33.74ZM74.8-5.93L74.8-5.93Q75.75-5.93 75.75-5.05L75.75-5.05Q75.75-4.39 74.9-3.49L74.9-3.49Q71.04 0.46 64.33 0.46L64.33 0.46Q58.3 0.46 54.17-3.17L54.17-3.17Q49.9-6.96 49.9-12.74L49.9-12.74Q49.9-18.65 53.76-22.46L53.76-22.46Q57.83-26.51 64.6-26.51L64.6-26.51Q70.02-26.51 73.7-23.22L73.7-23.22Q77.68-19.68 77.68-13.92L77.68-13.92Q77.68-13.09 77.63-12.16L77.63-12.16 61.52-12.16 61.52-1.68Q63.18-1.34 65.26-1.34L65.26-1.34Q69.65-1.34 72.75-4.25L72.75-4.25Q73.39-4.88 73.65-5.25L73.65-5.25Q74.22-5.93 74.8-5.93ZM68.28-13.94L68.28-24.27Q66.7-24.73 64.69-24.73 62.69-24.73 61.52-24.46L61.52-24.46 61.52-13.94 68.28-13.94ZM100.48 0.46L100.48 0.46Q97.09 0.46 93.92-1.07L93.92-1.07 93.92 0 83.88 0 83.88-34.55 93.92-34.55 93.92-24.83Q97.02-26.51 100.41-26.51 103.8-26.51 106.37-25.51 108.93-24.51 110.76-22.75L110.76-22.75Q114.55-19.04 114.55-13.26L114.55-13.26Q114.55-7.42 110.81-3.56L110.81-3.56Q106.95 0.46 100.48 0.46ZM100.41-24.73L100.41-24.73Q96.8-24.73 93.92-22.73L93.92-22.73 93.92-3.15Q97.11-1.34 101.09-1.34L101.09-1.34 101.73-1.34Q102.02-1.34 102.29-1.39L102.29-1.39 102.29-24.58Q101.36-24.73 100.41-24.73ZM163.74-33.74L163.74-33.74Q163.74-33.37 163.57-32.84L163.57-32.84Q162.98-31.25 162.52-30.08L162.52-30.08 149.58 1.34 140.37-19.21 130.83 1.34 116.37-34.55 129.75-34.55 136.61-16.26 145.92-36.11 154.58-16.31 160.69-30.64Q161-31.45 161.22-32.23L161.22-32.23 161.64-33.72Q161.91-34.81 162.82-34.81 163.74-34.81 163.74-33.74ZM166.49-13.18L166.49-13.18Q166.49-16.11 167.56-18.52 168.62-20.92 170.47-22.71L170.47-22.71Q174.48-26.51 180.53-26.51L180.53-26.51Q186.71-26.51 190.59-22.56L190.59-22.56Q194.3-18.82 194.3-13.11L194.3-13.11Q194.3-7.37 190.49-3.52L190.49-3.52Q186.56 0.46 180.43 0.46L180.43 0.46Q174.45 0.46 170.52-3.32L170.52-3.32Q166.49-7.23 166.49-13.18ZM179.75-24.71L179.75-1.37Q179.95-1.34 180.14-1.34L180.14-1.34 180.48-1.34Q185.41-1.34 188.76-4.39L188.76-4.39Q192.32-7.69 192.32-13.04L192.32-13.04Q192.32-18.26 188.98-21.51L188.98-21.51Q185.68-24.73 180.46-24.73L180.46-24.73 180.09-24.73Q179.92-24.73 179.75-24.71L179.75-24.71ZM200.55 0L200.55-26.07 211.05-26.07 211.05-18.41Q212.73-22.58 214.67-24.55 216.61-26.51 218.57-26.51L218.57-26.51Q219.67-26.51 220.31-25.94 220.96-25.37 220.96-24.66 220.96-23.95 220.76-23.54 220.57-23.12 220.25-22.83L220.25-22.83Q219.59-22.22 219.01-22.22L219.01-22.22Q218.08-22.22 217.64-22.41L217.64-22.41Q216.88-22.75 216.3-22.75 215.71-22.75 214.81-21.81 213.9-20.87 213.07-19.21L213.07-19.21Q211.05-15.16 211.05-10.42L211.05-10.42 211.05 0 200.55 0ZM224.11 0L224.11-34.55 234.6-34.55 234.6-15.92 244.88-23.36Q246.35-24.46 247.23-25.49 248.11-26.51 248.72-26.51L248.72-26.51Q249.81-26.51 249.81-25.61L249.81-25.61Q249.81-24.93 248.98-24.24L248.98-24.24 242.76-19.43 251.74 0 240.83 0 234.6-13.77 234.6 0 224.11 0ZM254.28-3.27L254.28-3.27Q254.28-3.64 254.54-3.94 254.79-4.25 255.21-4.25 255.62-4.25 255.89-4L255.89-4Q255.89-4 256.5-3.44L256.5-3.44Q259.04-1.22 263.61-1.22L263.61-1.22Q266.68-1.22 267.56-2.49L267.56-2.49Q267.8-2.83 267.8-3.19 267.8-3.54 267.67-3.87 267.54-4.2 267.1-4.68 266.66-5.15 265.85-5.81L265.85-5.81 263.7-7.54Q258.38-11.69 256.4-14.28L256.4-14.28Q254.6-16.65 254.6-19.12L254.6-19.12Q254.6-22.22 257.45-24.32L257.45-24.32Q260.41-26.51 265.09-26.51L265.09-26.51Q268.39-26.51 270.3-25.76 272.2-25 272.98-24.38 273.76-23.75 273.76-23.24L273.76-23.24Q273.76-22.19 272.93-22.19L272.93-22.19Q272.54-22.19 272.21-22.47 271.88-22.75 270.91-23.43 269.93-24.1 268.32-24.49 266.71-24.88 265.31-24.88 263.92-24.88 263.35-24.44 262.78-24 262.78-23.57 262.78-23.14 262.95-22.77 263.12-22.39 263.58-21.88L263.58-21.88Q264.66-20.61 267.02-18.87 269.39-17.14 271.03-15.7 272.66-14.26 273.59-13.04L273.59-13.04Q275.28-10.84 275.28-8.59 275.28-6.35 274.45-4.75 273.62-3.15 272.08-2L272.08-2Q268.83 0.46 263.41 0.46L263.41 0.46Q259.06 0.46 256.16-1.2L256.16-1.2Q254.28-2.25 254.28-3.27Z" opacity="1" transform="matrix(1,0,0,1,0,0)" fill="#383838" class="slogan-text-1" data-fill-palette-color="secondary" id="text-1"></path></svg></g></svg></g></svg></g></svg></g><g transform="matrix(1,0,0,1,0,46.00996959328333)"><svg viewBox="0 0 184.24013759999997 135.86380754219425" height="135.86380754219425" width="184.24013759999997"><g><svg xmlns="http://www.w3.org/2000/svg" xmlns:cc="http://creativecommons.org/ns#" xmlns:dc="http://purl.org/dc/elements/1.1/" xmlns:rdf="http://www.w3.org/1999/02/22-rdf-syntax-ns#" version="1.1" viewBox="0.43 2.674236916134318 15.41 11.363763083865683" x="0" y="0" height="135.86380754219425" width="184.24013759999997" class="icon-icon-0" data-fill-palette-color="accent" id="icon-0"><g shape-rendering="auto" fill="#f20056" data-fill-palette-color="accent"><path d="M10.789 5.462L8.259 9.75 5.73 14.035H10.787L15.84 14.038 13.315 9.749zM10.789 6.346L12.924 9.97 15.06 13.595 10.786 13.594H6.512L8.65 9.97z" color="#f20056" color-rendering="auto" dominant-baseline="auto" image-rendering="auto" solid-color="#f20056" font-feature-settings="normal" font-variant-alternates="normal" font-variant-caps="normal" font-variant-ligatures="normal" font-variant-numeric="normal" font-variant-position="normal" isolation="auto" mix-blend-mode="normal" paint-order="fill markers stroke" shape-padding="0" text-decoration-color="#f20056" text-decoration-line="none" text-decoration-style="solid" text-indent="0" text-orientation="mixed" text-transform="none" white-space="normal" fill="#f20056" data-fill-palette-color="accent"></path><path d="M10.733 4.29A3.15 3.15 0 0 0 7.613 2.696C6.34 2.843 5.286 3.737 4.955 4.949A3.03 3.03 0 0 0 6.115 8.202 3.19 3.19 0 0 0 9.626 8.348L9.387 7.97A2.73 2.73 0 0 1 6.38 7.847 2.59 2.59 0 0 1 5.39 5.067 2.66 2.66 0 0 1 7.668 3.138 2.69 2.69 0 0 1 10.338 4.498z" color="#f20056" color-rendering="auto" dominant-baseline="auto" image-rendering="auto" solid-color="#f20056" font-feature-settings="normal" font-variant-alternates="normal" font-variant-caps="normal" font-variant-ligatures="normal" font-variant-numeric="normal" font-variant-position="normal" isolation="auto" mix-blend-mode="normal" paint-order="fill markers stroke" shape-padding="0" text-decoration-color="#f20056" text-decoration-line="none" text-decoration-style="solid" text-indent="0" text-orientation="mixed" text-transform="none" white-space="normal" fill="#f20056" data-fill-palette-color="accent"></path><path d="M0.648 13.566L0.646 14.013 6.12 14.037 6.121 13.589z" color="#f20056" color-rendering="auto" dominant-baseline="auto" fill-rule="evenodd" image-rendering="auto" solid-color="#f20056" font-feature-settings="normal" font-variant-alternates="normal" font-variant-caps="normal" font-variant-ligatures="normal" font-variant-numeric="normal" font-variant-position="normal" isolation="auto" mix-blend-mode="normal" shape-padding="0" text-decoration-color="#f20056" text-decoration-line="none" text-decoration-style="solid" text-indent="0" text-orientation="mixed" text-transform="none" white-space="normal" fill="#f20056" data-fill-palette-color="accent"></path><path d="M0.962 5.303A4 4 0 0 0 0.646 5.47 1 1 0 0 0 0.536 5.543 0.3 0.3 0 0 0 0.482 5.6 0.2 0.2 0 0 0 0.444 5.668L0.434 5.7 0.43 5.74 0.453 5.845 3.845 12.659 3.914 12.74 3.949 12.763S3.972 12.773 3.982 12.775C4.019 12.788 4.042 12.79 4.06 12.79 4.098 12.79 4.118 12.785 4.139 12.78A1 1 0 0 0 4.266 12.741C4.357 12.708 4.47 12.66 4.594 12.6L5.158 12.33A4 4 0 0 0 5.475 12.164 1 1 0 0 0 5.585 12.09C5.6 12.077 5.616 12.064 5.64 12.036A0.22 0.22 0 0 0 5.69 11.892L5.669 11.79 2.276 4.975 2.206 4.893 2.173 4.871 2.14 4.858C2.103 4.845 2.08 4.846 2.06 4.846A0.3 0.3 0 0 0 1.981 4.853 1 1 0 0 0 1.856 4.893 4 4 0 0 0 1.526 5.033zM1.161 5.702L1.725 5.432C1.815 5.39 1.889 5.363 1.955 5.336L5.18 11.814C5.118 11.849 5.05 11.889 4.96 11.932L4.396 12.2C4.306 12.244 4.232 12.272 4.166 12.298L0.94 5.82C1.002 5.785 1.07 5.745 1.16 5.702" color="#f20056" color-rendering="auto" dominant-baseline="auto" image-rendering="auto" solid-color="#f20056" font-feature-settings="normal" font-variant-alternates="normal" font-variant-caps="normal" font-variant-ligatures="normal" font-variant-numeric="normal" font-variant-position="normal" isolation="auto" mix-blend-mode="normal" paint-order="fill markers stroke" shape-padding="0" text-decoration-color="#f20056" text-decoration-line="none" text-decoration-style="solid" text-indent="0" text-orientation="mixed" text-transform="none" white-space="normal" fill="#f20056" data-fill-palette-color="accent"></path><path d="M3.28 11.003C1.74 11.2 0.574 12.482 0.558 14.011L1.005 14.019C1.018 12.714 2.01 11.614 3.339 11.444z" color="#f20056" color-rendering="auto" dominant-baseline="auto" image-rendering="auto" solid-color="#f20056" font-feature-settings="normal" font-variant-alternates="normal" font-variant-caps="normal" font-variant-ligatures="normal" font-variant-numeric="normal" font-variant-position="normal" isolation="auto" mix-blend-mode="normal" paint-order="fill markers stroke" shape-padding="0" text-decoration-color="#f20056" text-decoration-line="none" text-decoration-style="solid" text-indent="0" text-orientation="mixed" text-transform="none" white-space="normal" fill="#f20056" data-fill-palette-color="accent"></path><path d="M10.211 4.084A0.2 0.2 0 0 0 10.111 4.111L3.943 7.291A0.223 0.223 0 1 0 4.147 7.688L10.317 4.508A0.223 0.223 0 0 0 10.21 4.084" color="#f20056" color-rendering="auto" dominant-baseline="auto" fill-rule="evenodd" image-rendering="auto" solid-color="#f20056" font-feature-settings="normal" font-variant-alternates="normal" font-variant-caps="normal" font-variant-ligatures="normal" font-variant-numeric="normal" font-variant-position="normal" isolation="auto" mix-blend-mode="normal" shape-padding="0" text-decoration-color="#f20056" text-decoration-line="none" text-decoration-style="solid" text-indent="0" text-orientation="mixed" text-transform="none" white-space="normal" fill="#f20056" data-fill-palette-color="accent"></path></g></svg></g></svg></g></svg></g><defs></defs></svg><rect width="395.52" height="146.00716790527161" fill="none" stroke="none" visibility="hidden"></rect></g></svg></g></svg>