<svg width="115" height="44" viewBox="0 0 115 44" fill="none" xmlns="http://www.w3.org/2000/svg">
<path d="M13.3018 41.6958C12.8596 42.0453 12.3795 42.3439 11.8704 42.5859C11.3278 42.8422 10.756 43.0314 10.1677 43.1494C9.48471 43.2836 8.78984 43.3479 8.09385 43.3411C6.98889 43.3507 5.89346 43.1361 4.87388 42.7101C3.91101 42.3097 3.03646 41.7236 2.3002 40.9851C1.57266 40.2448 0.999357 39.3674 0.613546 38.4038C0.20292 37.3946 -0.00546802 36.3147 0.000218079 35.2252V35.18C-0.00768324 34.0945 0.199196 33.0181 0.608946 32.0129C1.0002 31.0487 1.57276 30.1685 2.2956 29.42C3.03402 28.6651 3.91721 28.0669 4.89228 27.6613C5.89864 27.2325 7.01081 27.0184 8.22878 27.0189C8.90563 27.0137 9.5814 27.074 10.2466 27.199C10.8146 27.3072 11.3701 27.4734 11.9041 27.6951C12.389 27.8997 12.8499 28.1567 13.2788 28.4617C13.6964 28.7592 14.0885 29.0911 14.451 29.4538L12.2422 32.0014C11.6775 31.4812 11.0439 31.0411 10.3593 30.6935C9.68721 30.3705 8.94908 30.2085 8.20348 30.2204C7.5697 30.2142 6.94206 30.345 6.3635 30.6038C5.80925 30.8513 5.31303 31.2122 4.90684 31.6633C4.496 32.1218 4.17484 32.6534 3.96002 33.2303C3.73123 33.839 3.61637 34.4845 3.62115 35.1347V35.18C3.61706 35.8341 3.73188 36.4835 3.96002 37.0966C4.17551 37.6765 4.49653 38.2114 4.90684 38.6744C5.31907 39.1409 5.82681 39.5132 6.39563 39.7661C6.96444 40.019 7.581 40.1466 8.20348 40.1402C9.10507 40.1402 9.8679 39.9749 10.492 39.6442C11.1681 39.2758 11.7933 38.821 12.3519 38.2911L14.5668 40.5228C14.175 40.9449 13.7522 41.337 13.3018 41.6958Z" fill="#012A72"/>
<path d="M22.9512 34.3465C21.8078 34.3465 20.9096 34.6923 20.2564 35.3838C19.6032 36.0753 19.2763 37.1499 19.2758 38.6076V43.0711H15.8496V30.987H19.2758V33.4219C19.6218 32.5954 20.0954 31.9341 20.6964 31.4378C21.2975 30.9415 22.1091 30.7161 23.1313 30.7616V34.3465H22.9512Z" fill="#012A72"/>
<path d="M35.4059 37.7963C35.3983 37.9167 35.3875 38.06 35.3722 38.2249H26.9635C27.1286 39.0069 27.4705 39.5967 27.9893 39.9943C28.508 40.392 29.1505 40.5913 29.9166 40.5923C30.4425 40.6011 30.9645 40.5011 31.45 40.2987C31.9008 40.104 32.3666 39.7884 32.8476 39.3519L34.8064 41.0868C34.2465 41.7845 33.5398 42.3501 32.7364 42.7436C31.9243 43.1417 30.9698 43.3408 29.8729 43.3408C29.0142 43.3486 28.1616 43.1957 27.3591 42.89C26.6088 42.6048 25.9256 42.1673 25.3527 41.6051C24.785 41.0441 24.336 40.3745 24.0325 39.6363C23.7077 38.8308 23.5467 37.9686 23.5587 37.1002V37.055C23.5533 36.222 23.7017 35.3953 23.9965 34.6162C24.2731 33.875 24.6895 33.1939 25.2232 32.6099C25.7701 32.0158 26.4364 31.5441 27.1784 31.2255C27.9204 30.907 28.7213 30.7488 29.5287 30.7614C30.5351 30.7614 31.4068 30.9416 32.1438 31.3019C32.8579 31.6445 33.4865 32.1421 33.9838 32.7586C34.4783 33.3799 34.8459 34.0923 35.0655 34.8554C35.3005 35.6571 35.4182 36.4886 35.4151 37.3241V37.3693C35.4182 37.5333 35.4151 37.6757 35.4059 37.7963ZM31.266 34.2229C30.8305 33.7501 30.2519 33.5135 29.5303 33.513C28.8086 33.5125 28.2262 33.7455 27.783 34.2122C27.3399 34.6783 27.0506 35.3019 26.9152 36.0828H32.0779C31.9751 35.3162 31.7055 34.6957 31.269 34.2214L31.266 34.2229Z" fill="#012A72"/>
<path d="M45.5628 43.0704V41.35C45.1497 41.9093 44.6331 42.384 44.041 42.7484C43.4471 43.1133 42.6993 43.2961 41.7977 43.2966C41.0938 43.297 40.3967 43.1589 39.7462 42.8902C39.0811 42.6175 38.4816 42.2064 37.9874 41.6843C37.4552 41.1163 37.0386 40.4502 36.7608 39.7232C36.4541 38.9488 36.3008 38.0582 36.3008 37.0514V37.0061C36.3008 35.9998 36.4541 35.1091 36.7608 34.3343C37.0379 33.609 37.4511 32.9433 37.9782 32.3732C38.4667 31.8498 39.0628 31.4384 39.7255 31.1672C40.3834 30.8973 41.0881 30.7595 41.7993 30.7617C42.7152 30.7617 43.4703 30.9406 44.0647 31.2983C44.629 31.6321 45.1355 32.0552 45.5643 32.5511V26.6133H48.9898V43.0704H45.5628ZM45.608 37.0061C45.6134 36.5378 45.5331 36.0725 45.3711 35.633C45.2278 35.2418 45.0137 34.8803 44.7394 34.5666C44.3451 34.1311 43.8236 33.831 43.249 33.7089C42.6744 33.5868 42.0759 33.649 41.5386 33.8866C41.1831 34.0468 40.8644 34.2785 40.6025 34.5674C40.3242 34.8757 40.1063 35.2335 39.96 35.6223C39.7964 36.0653 39.7163 36.5347 39.7239 37.0069V37.0521C39.7182 37.5204 39.7982 37.9858 39.96 38.4252C40.1044 38.8185 40.3225 39.1807 40.6025 39.4924C40.8644 39.7813 41.1831 40.013 41.5386 40.1732C42.075 40.4159 42.6749 40.4808 43.2508 40.3583C43.8267 40.2359 44.3483 39.9324 44.7394 39.4924C45.0137 39.1785 45.2278 38.8167 45.3711 38.4252C45.5332 37.9858 45.6135 37.5204 45.608 37.0521V37.0061Z" fill="#012A72"/>
<path d="M50.9951 29.6569V26.6133H54.6023V29.6569H50.9951ZM51.0856 43.0735V30.9871H54.5095V43.0704L51.0856 43.0735Z" fill="#012A72"/>
<path d="M62.2001 43.0816C61.7082 43.2165 61.1997 43.281 60.6898 43.2733C60.2074 43.2788 59.7263 43.2221 59.2584 43.1046C58.846 43.0008 58.4661 42.7952 58.1537 42.5067C57.829 42.1966 57.5819 41.8144 57.4322 41.3912C57.259 40.9312 57.1723 40.3488 57.1723 39.6439V33.917H55.7295V30.9868H57.1723V27.8979H60.5993V30.9868H63.4398V33.917H60.5993V39.0797C60.5993 39.8617 60.9676 40.2527 61.7041 40.2527C62.295 40.2553 62.877 40.1079 63.3953 39.8241V42.5741C63.0191 42.7915 62.6177 42.9619 62.2001 43.0816Z" fill="#012A72"/>
<path d="M77.553 43.0701V32.7677L73.1109 39.5082H73.0212L68.6252 32.8382V43.0731H65.1982V27.293H68.9403L73.0887 33.9629L77.2371 27.293H80.9792V43.0701H77.553Z" fill="#012A72"/>
<path d="M90.3578 43.0703V41.767C89.9337 42.2357 89.4202 42.6149 88.8475 42.8825C88.2608 43.1605 87.5467 43.2998 86.7055 43.3003C86.1599 43.3039 85.6169 43.224 85.0955 43.0634C84.6128 42.917 84.1645 42.6754 83.7768 42.3527C83.3988 42.0353 83.0948 41.6392 82.886 41.192C82.6597 40.6933 82.5481 40.1502 82.5594 39.6027V39.5575C82.5594 38.8966 82.6795 38.3254 82.9197 37.844C83.1525 37.37 83.4962 36.9592 83.9217 36.6465C84.3834 36.3149 84.9036 36.0737 85.455 35.9358C86.0996 35.7719 86.7627 35.6925 87.4277 35.6996C87.9674 35.6929 88.5065 35.7381 89.0376 35.8346C89.4926 35.9241 89.9409 36.0448 90.3793 36.1957V35.9925C90.3793 35.2713 90.1613 34.7227 89.7253 34.3465C89.2894 33.9703 88.6431 33.7825 87.7865 33.783C87.1996 33.7752 86.6137 33.832 86.0392 33.9524C85.4987 34.0761 84.9676 34.238 84.45 34.437L83.5928 31.8219C84.2641 31.5326 84.958 31.2988 85.6674 31.1227C86.3886 30.9423 87.2603 30.8521 88.2825 30.8521C90.1608 30.8521 91.5285 31.3105 92.3857 32.2274C93.2428 33.1444 93.6711 34.4221 93.6706 36.0607V43.0718L90.3578 43.0703ZM90.4253 38.2013C90.103 38.0585 89.767 37.9488 89.4225 37.8739C89.0349 37.7899 88.6392 37.7485 88.2426 37.7505C87.5056 37.7505 86.927 37.8931 86.5069 38.1783C86.0868 38.4634 85.8762 38.8769 85.8752 39.4187V39.4632C85.8752 39.9293 86.0482 40.2901 86.3942 40.5457C86.7402 40.8012 87.191 40.929 87.7466 40.929C88.5582 40.929 89.2084 40.7335 89.697 40.3425C89.9315 40.163 90.1202 39.9305 90.2474 39.6639C90.3747 39.3974 90.437 39.1045 90.4291 38.8092L90.4253 38.2013Z" fill="#012A72"/>
<path d="M101.09 43.0816C100.598 43.2165 100.089 43.281 99.5787 43.2733C99.0963 43.2787 98.6152 43.222 98.1473 43.1046C97.7349 43.0007 97.3551 42.7951 97.0426 42.5067C96.7179 42.1966 96.4708 41.8144 96.3211 41.3912C96.1479 40.9312 96.0615 40.3488 96.062 39.6439V33.917H94.6191V30.9868H96.0628V27.8979H99.4897V30.9868H102.326V33.917H99.4897V39.0797C99.4897 39.8617 99.858 40.2527 100.594 40.2527C101.185 40.2553 101.767 40.1079 102.285 39.8241V42.5741C101.909 42.7916 101.507 42.9621 101.09 43.0816Z" fill="#012A72"/>
<path d="M114.987 37.7969C114.98 37.9172 114.969 38.0606 114.954 38.2254H106.545C106.71 39.0074 107.052 39.5972 107.571 39.9949C108.09 40.3925 108.732 40.5918 109.498 40.5929C110.024 40.6015 110.546 40.5016 111.032 40.2992C111.482 40.1045 111.948 39.7889 112.429 39.3524L114.39 41.0889C113.83 41.7866 113.124 42.3522 112.32 42.7457C111.509 43.1438 110.554 43.3429 109.457 43.3429C108.598 43.3507 107.745 43.1978 106.943 42.8921C106.193 42.6071 105.509 42.1696 104.937 41.6072C104.368 41.0461 103.918 40.376 103.614 39.6368C103.289 38.8313 103.128 37.9692 103.14 37.1007V37.0555C103.136 36.2237 103.285 35.3982 103.58 34.6206C103.857 33.8795 104.274 33.1985 104.807 32.6142C105.354 32.0203 106.021 31.5485 106.763 31.23C107.505 30.9115 108.306 30.7533 109.113 30.7658C110.12 30.7658 110.992 30.946 111.728 31.3063C112.442 31.6493 113.071 32.1469 113.568 32.763C114.063 33.3842 114.431 34.0967 114.65 34.8598C114.885 35.6615 115.003 36.493 115 37.3284V37.3737C114.999 37.5352 114.995 37.6762 114.987 37.7969ZM110.848 34.2235C110.411 33.7507 109.832 33.514 109.112 33.5135C108.391 33.513 107.809 33.7461 107.365 34.2127C106.921 34.6789 106.632 35.3024 106.497 36.0834H111.659C111.556 35.3167 111.286 34.6962 110.851 34.2219L110.848 34.2235Z" fill="#012A72"/>
<path d="M80.7134 7.29115C80.353 6.26249 79.6817 5.37131 78.7925 4.74098C77.9032 4.11066 76.84 3.77237 75.7501 3.77295H75.7033C74.9951 3.77235 74.2941 3.91524 73.6427 4.193C72.9912 4.47076 72.4028 4.87764 71.9129 5.38907C71.4231 4.87773 70.8348 4.47091 70.1835 4.19315C69.5322 3.91539 68.8314 3.77245 68.1233 3.77295H68.0796C66.8216 3.77204 65.6052 4.22377 64.6527 5.04561V4.64388C64.6391 4.44927 64.5527 4.26693 64.4105 4.13333C64.2684 3.99972 64.0811 3.92468 63.886 3.92322H60.3686C60.2664 3.92342 60.1654 3.94374 60.0711 3.98302C59.9766 4.02187 59.8909 4.07922 59.8189 4.15168C59.7461 4.22372 59.6883 4.30945 59.6488 4.40392C59.6094 4.4984 59.589 4.59975 59.5889 4.70214V23.7973C59.5889 24.0035 59.6708 24.2013 59.8166 24.347C59.9623 24.4928 60.1601 24.5747 60.3663 24.5747H63.8768C64.0642 24.5742 64.2452 24.5058 64.3861 24.3822C64.527 24.2586 64.6185 24.0882 64.6435 23.9024V10.0596C64.6688 9.7498 64.8058 9.45978 65.0288 9.24335C65.2519 9.02691 65.5459 8.89878 65.8563 8.88274H66.5057C66.7761 8.90193 67.0344 9.00211 67.247 9.17024C67.3995 9.29381 67.5218 9.45047 67.6046 9.62833C67.6875 9.80619 67.7288 10.0006 67.7254 10.1968L67.7385 23.8349C67.7387 24.0411 67.8206 24.2388 67.9663 24.3847C68.1121 24.5305 68.3097 24.6127 68.5159 24.6131H72.0264C72.2267 24.6145 72.4199 24.5383 72.5653 24.4006C72.7108 24.2628 72.7974 24.0741 72.8068 23.874V10.183C72.8025 9.96663 72.8526 9.75265 72.9527 9.56078C73.0528 9.36891 73.1996 9.20533 73.3795 9.08514C73.5738 8.95992 73.7962 8.88509 74.0266 8.86741H74.6729C75.0072 8.88488 75.3215 9.03214 75.5489 9.27785C75.7763 9.52357 75.8988 9.84832 75.8904 10.183L75.9049 23.8035C75.9049 24.0097 75.9868 24.2074 76.1326 24.3532C76.2784 24.499 76.4761 24.5809 76.6823 24.5809H80.1929C80.3991 24.5807 80.5969 24.4987 80.7429 24.353C80.8889 24.2073 80.9712 24.0097 80.9718 23.8035V9.15567C81.0025 8.52409 80.912 7.89248 80.705 7.29499" fill="#00B8F5"/>
<path d="M56.9133 3.97437H54.9023V0.714527C54.9025 0.620986 54.8846 0.5283 54.8494 0.441596C54.8141 0.355519 54.762 0.277336 54.6961 0.211598C54.6305 0.144765 54.5522 0.091642 54.4659 0.0553167C54.3796 0.0189914 54.2869 0.000188239 54.1932 0C54.1483 0.000728239 54.1036 0.00612387 54.0598 0.0160999C51.8265 0.620995 52.2781 3.71523 48.2063 3.97897H47.8107C47.7537 3.9792 47.6969 3.98562 47.6413 3.99813C47.4698 4.03741 47.3166 4.13355 47.2066 4.27094C47.0967 4.40832 47.0364 4.57886 47.0356 4.75483V8.26536C47.0353 8.36772 47.0552 8.46913 47.0941 8.5638C47.133 8.65847 47.1902 8.74454 47.2624 8.81709C47.3346 8.88964 47.4204 8.94726 47.5149 8.98664C47.6094 9.02602 47.7107 9.04639 47.813 9.04659H49.9352V23.952C49.9352 24.1553 50.0159 24.3503 50.1597 24.4941C50.3035 24.6379 50.4985 24.7187 50.7018 24.7187H54.1786C54.3819 24.7187 54.5769 24.6379 54.7207 24.4941C54.8645 24.3503 54.9453 24.1553 54.9453 23.952V9.04659H56.9148C57.017 9.04678 57.1183 9.02653 57.2125 8.98703C57.3068 8.94753 57.3922 8.88958 57.4638 8.81659C57.5359 8.74452 57.593 8.65877 57.6317 8.56436C57.6707 8.47005 57.6907 8.36897 57.6907 8.2669V4.75329C57.6908 4.65138 57.6708 4.55044 57.6318 4.45626C57.5929 4.36209 57.5357 4.27652 57.4637 4.20445C57.3916 4.13239 57.306 4.07524 57.2119 4.03629C57.1177 3.99733 57.0167 3.97733 56.9148 3.97743" fill="#00B8F5"/>
<path d="M44.2612 3.97523H40.7507C40.5445 3.97564 40.3469 4.05778 40.2012 4.20365C40.0554 4.34951 39.9735 4.54721 39.9733 4.75339V12.0252C39.9701 12.2411 39.8821 12.4472 39.7284 12.5989C39.5746 12.7507 39.3674 12.8359 39.1514 12.8363H37.6772C37.569 12.8363 37.4619 12.8149 37.3621 12.7734C37.262 12.7321 37.171 12.6714 37.0945 12.5948C37.0179 12.5182 36.9572 12.4273 36.9159 12.3272C36.8751 12.2269 36.854 12.1197 36.8538 12.0114L36.8384 4.74803C36.838 4.54212 36.7559 4.34478 36.6102 4.19932C36.4644 4.05386 36.2669 3.97217 36.061 3.97217H32.5505C32.4484 3.97211 32.3473 3.99217 32.253 4.0312C32.1586 4.06983 32.0729 4.12691 32.0008 4.1991C31.9278 4.27065 31.8699 4.35607 31.8304 4.45033C31.7909 4.5446 31.7706 4.64582 31.7708 4.74803V12.7144C31.7425 13.4029 31.8572 14.0898 32.1075 14.7318C32.3579 15.3738 32.7385 15.957 33.2254 16.4446C33.7123 16.9322 34.2949 17.3137 34.9365 17.565C35.5782 17.8163 36.2649 17.9319 36.9534 17.9047C36.9534 17.9047 39.225 17.9047 39.2956 17.9185C39.496 17.9394 39.6817 18.0336 39.8171 18.1829C39.9525 18.3322 40.028 18.5263 40.0293 18.7278C40.0305 18.9294 39.9574 19.1243 39.8238 19.2753C39.6903 19.4263 39.5057 19.5227 39.3055 19.5461L39.2473 19.5553L34.1045 19.5745C33.8983 19.5745 33.7006 19.6564 33.5548 19.8022C33.409 19.9479 33.3271 20.1457 33.3271 20.3519V23.8624C33.3271 24.0686 33.409 24.2663 33.5548 24.4121C33.7006 24.5579 33.8983 24.6398 34.1045 24.6398H39.8583C40.5467 24.6675 41.2334 24.5524 41.8751 24.3017C42.5168 24.051 43.0996 23.6701 43.5869 23.183C44.0741 22.6959 44.4552 22.1132 44.7061 21.4715C44.957 20.8299 45.0723 20.1433 45.0448 19.4549V4.75339C45.0434 4.54704 44.9608 4.34954 44.8148 4.2037C44.7424 4.13189 44.6567 4.07486 44.5625 4.0358C44.4682 3.99677 44.3671 3.97671 44.2651 3.97677" fill="#012A72"/>
<path d="M10.5375 3.97393H2.85325C2.75272 3.97383 2.65317 3.99362 2.56032 4.03216C2.46747 4.0707 2.38317 4.12723 2.31226 4.19849C2.24136 4.26975 2.18525 4.35434 2.14718 4.44738C2.10911 4.54042 2.08982 4.64007 2.09043 4.74059V8.18366C2.08965 8.18797 2.08965 8.19239 2.09043 8.1967V23.8366C2.08388 24.0335 2.15451 24.2252 2.28727 24.3709C2.42002 24.5165 2.6044 24.6046 2.80112 24.6163H6.38295C6.58834 24.6163 6.78538 24.535 6.93103 24.3902C7.07669 24.2454 7.15913 24.0488 7.16035 23.8435L7.17338 18.4983H10.5375C11.1731 18.529 11.8082 18.4264 12.4018 18.197C12.9955 17.9677 13.5345 17.6167 13.9844 17.1665C14.4343 16.7164 14.7851 16.1772 15.0142 15.5834C15.2432 14.9897 15.3455 14.3546 15.3145 13.7189V8.75176C15.3457 8.11576 15.2436 7.48027 15.0146 6.88607C14.7857 6.29188 14.4351 5.75212 13.9853 5.30142C13.5354 4.85073 12.9963 4.49907 12.4026 4.269C11.8088 4.03894 11.1735 3.93556 10.5375 3.9655V3.97393ZM10.2308 10.4077V12.5774C10.2309 12.6855 10.2097 12.7926 10.1684 12.8925C10.1272 12.9925 10.0666 13.0833 9.9902 13.1598C9.91381 13.2364 9.8231 13.2971 9.72324 13.3386C9.62338 13.3801 9.51632 13.4015 9.4082 13.4016H7.17338V9.06839H9.4059C9.62387 9.06859 9.83288 9.15522 9.98708 9.30928C10.1413 9.46335 10.2281 9.67227 10.2285 9.89025L10.2308 10.4077Z" fill="#012A72"/>
<path d="M24.2605 3.99405H19.3838C19.1841 3.98761 18.9899 4.06026 18.8435 4.19622C18.6971 4.33217 18.6102 4.52043 18.6018 4.72007V8.01671C18.6055 8.12188 18.6298 8.22529 18.6735 8.32104C18.7171 8.4168 18.7792 8.50302 18.8561 8.57478C18.9331 8.64654 19.0234 8.70244 19.122 8.73929C19.2206 8.77613 19.3254 8.79319 19.4306 8.78951H24.0735C24.2576 8.81395 24.4277 8.90122 24.555 9.03658C24.6822 9.17193 24.7589 9.34707 24.7719 9.5324V9.98549C24.761 10.1667 24.6872 10.3384 24.5632 10.471C24.4392 10.6035 24.2727 10.6886 24.0926 10.7115H21.7927C21.1216 10.6617 20.4475 10.7512 19.8127 10.9745C19.1779 11.1977 18.5962 11.5498 18.104 12.0086C17.6118 12.4675 17.2198 13.0232 16.9527 13.6408C16.6856 14.2584 16.5491 14.9246 16.5518 15.5974V19.6914C16.5149 20.3439 16.6173 20.9967 16.852 21.6066C17.0868 22.2165 17.4486 22.7695 17.9135 23.2288C18.3783 23.6881 18.9355 24.0433 19.5482 24.2708C20.1608 24.4983 20.8148 24.5928 21.4668 24.5482H27.8439C28.3753 24.5658 28.8919 24.3715 29.2801 24.0082C29.6683 23.6449 29.8963 23.1423 29.9139 22.6108V9.27097C29.9139 6.0372 28.2464 3.99405 24.2605 3.99405ZM24.821 18.671V19.2191C24.8206 19.2627 24.816 19.3061 24.8072 19.3487C24.7997 19.3875 24.7887 19.4255 24.7742 19.4622C24.7144 19.6203 24.6071 19.756 24.4671 19.8507C24.3271 19.9454 24.1612 19.9945 23.9922 19.9912H22.5287C22.4235 19.9948 22.3187 19.9776 22.2201 19.9407C22.1216 19.9037 22.0313 19.8477 21.9544 19.7759C21.8775 19.7041 21.8156 19.6178 21.772 19.522C21.7285 19.4262 21.7042 19.3228 21.7007 19.2176V16.2092C21.71 15.9982 21.8022 15.7994 21.9572 15.6559C22.1122 15.5123 22.3175 15.4357 22.5287 15.4426H23.9968C24.2095 15.4357 24.4162 15.5135 24.5717 15.6588C24.7272 15.804 24.8187 16.005 24.8263 16.2177L24.821 18.671Z" fill="#012A72"/>
</svg>
